<svg width="258" height="31" viewBox="0 0 258 31" fill="none" xmlns="http://www.w3.org/2000/svg">
<path d="M0.32 30V2H12.44C14.9467 2 17.1067 2.41333 18.92 3.24C20.7333 4.04 22.1333 5.2 23.12 6.72C24.1067 8.24 24.6 10.0533 24.6 12.16C24.6 14.24 24.1067 16.04 23.12 17.56C22.1333 19.0533 20.7333 20.2 18.92 21C17.1067 21.8 14.9467 22.2 12.44 22.2H3.92L6.8 19.36V30H0.32ZM18.12 30L11.12 19.84H18.04L25.12 30H18.12ZM6.8 20.08L3.92 17.04H12.08C14.08 17.04 15.5733 16.6133 16.56 15.76C17.5467 14.88 18.04 13.68 18.04 12.16C18.04 10.6133 17.5467 9.41333 16.56 8.56C15.5733 7.70667 14.08 7.28 12.08 7.28H3.92L6.8 4.2V20.08ZM39.5341 30.32C37.2407 30.32 35.2007 29.84 33.4141 28.88C31.6541 27.92 30.2541 26.6133 29.2141 24.96C28.2007 23.28 27.6941 21.3733 27.6941 19.24C27.6941 17.08 28.2007 15.1733 29.2141 13.52C30.2541 11.84 31.6541 10.5333 33.4141 9.6C35.2007 8.64 37.2407 8.16 39.5341 8.16C41.8007 8.16 43.8274 8.64 45.6141 9.6C47.4007 10.5333 48.8007 11.8267 49.8141 13.48C50.8274 15.1333 51.3341 17.0533 51.3341 19.24C51.3341 21.3733 50.8274 23.28 49.8141 24.96C48.8007 26.6133 47.4007 27.92 45.6141 28.88C43.8274 29.84 41.8007 30.32 39.5341 30.32ZM39.5341 25.2C40.5741 25.2 41.5074 24.96 42.3341 24.48C43.1607 24 43.8141 23.32 44.2941 22.44C44.7741 21.5333 45.0141 20.4667 45.0141 19.24C45.0141 17.9867 44.7741 16.92 44.2941 16.04C43.8141 15.16 43.1607 14.48 42.3341 14C41.5074 13.52 40.5741 13.28 39.5341 13.28C38.4941 13.28 37.5607 13.52 36.7341 14C35.9074 14.48 35.2407 15.16 34.7341 16.04C34.2541 16.92 34.0141 17.9867 34.0141 19.24C34.0141 20.4667 34.2541 21.5333 34.7341 22.44C35.2407 23.32 35.9074 24 36.7341 24.48C37.5607 24.96 38.4941 25.2 39.5341 25.2ZM65.905 30.32C63.585 30.32 61.5183 29.8533 59.705 28.92C57.8917 27.96 56.465 26.64 55.425 24.96C54.4117 23.28 53.905 21.3733 53.905 19.24C53.905 17.08 54.4117 15.1733 55.425 13.52C56.465 11.84 57.8917 10.5333 59.705 9.6C61.5183 8.64 63.585 8.16 65.905 8.16C68.1717 8.16 70.145 8.64 71.825 9.6C73.505 10.5333 74.745 11.88 75.545 13.64L70.705 16.24C70.145 15.2267 69.4383 14.48 68.585 14C67.7583 13.52 66.8517 13.28 65.865 13.28C64.7983 13.28 63.8383 13.52 62.985 14C62.1317 14.48 61.4517 15.16 60.945 16.04C60.465 16.92 60.225 17.9867 60.225 19.24C60.225 20.4933 60.465 21.56 60.945 22.44C61.4517 23.32 62.1317 24 62.985 24.48C63.8383 24.96 64.7983 25.2 65.865 25.2C66.8517 25.2 67.7583 24.9733 68.585 24.52C69.4383 24.04 70.145 23.28 70.705 22.24L75.545 24.88C74.745 26.6133 73.505 27.96 71.825 28.92C70.145 29.8533 68.1717 30.32 65.905 30.32ZM84.1806 25.6L84.3406 18L94.3806 8.48H101.821L92.1806 18.28L88.9406 20.92L84.1806 25.6ZM79.0206 30V0.319998H85.2606V30H79.0206ZM95.0606 30L87.7806 20.96L91.7006 16.12L102.621 30H95.0606ZM115.208 30.32C112.755 30.32 110.595 29.84 108.728 28.88C106.888 27.92 105.462 26.6133 104.448 24.96C103.435 23.28 102.928 21.3733 102.928 19.24C102.928 17.08 103.422 15.1733 104.408 13.52C105.422 11.84 106.795 10.5333 108.528 9.6C110.262 8.64 112.222 8.16 114.408 8.16C116.515 8.16 118.408 8.61333 120.088 9.52C121.795 10.4 123.142 11.68 124.128 13.36C125.115 15.0133 125.608 17 125.608 19.32C125.608 19.56 125.595 19.84 125.568 20.16C125.542 20.4533 125.515 20.7333 125.488 21H108.008V17.36H122.208L119.808 18.44C119.808 17.32 119.582 16.3467 119.128 15.52C118.675 14.6933 118.048 14.0533 117.248 13.6C116.448 13.12 115.515 12.88 114.448 12.88C113.382 12.88 112.435 13.12 111.608 13.6C110.808 14.0533 110.182 14.7067 109.728 15.56C109.275 16.3867 109.048 17.3733 109.048 18.52V19.48C109.048 20.6533 109.302 21.6933 109.808 22.6C110.342 23.48 111.075 24.16 112.008 24.64C112.968 25.0933 114.088 25.32 115.368 25.32C116.515 25.32 117.515 25.1467 118.368 24.8C119.248 24.4533 120.048 23.9333 120.768 23.24L124.088 26.84C123.102 27.96 121.862 28.8267 120.368 29.44C118.875 30.0267 117.155 30.32 115.208 30.32ZM138.563 30.32C136.029 30.32 134.056 29.68 132.643 28.4C131.229 27.0933 130.523 25.16 130.523 22.6V3.72H136.763V22.52C136.763 23.4267 137.003 24.1333 137.483 24.64C137.963 25.12 138.616 25.36 139.443 25.36C140.429 25.36 141.269 25.0933 141.963 24.56L143.643 28.96C143.003 29.4133 142.229 29.76 141.323 30C140.443 30.2133 139.523 30.32 138.563 30.32ZM127.203 13.76V8.96H142.123V13.76H127.203Z" fill="white"/>
<path d="M158.914 30V2H164.274L180.794 22.16H178.194V2H184.594V30H179.274L162.714 9.84H165.314V30H158.914ZM197.218 14.6H210.658V19.8H197.218V14.6ZM197.698 30H191.218V2H212.378V7.2H197.698V30ZM222.761 30V7.28H213.801V2H238.201V7.28H229.241V30H222.761ZM247.003 30.32C245.163 30.32 243.389 30.1067 241.683 29.68C240.003 29.2267 238.669 28.6667 237.683 28L239.763 23.52C240.749 24.1333 241.909 24.64 243.243 25.04C244.603 25.4133 245.936 25.6 247.243 25.6C248.683 25.6 249.696 25.4267 250.283 25.08C250.896 24.7333 251.203 24.2533 251.203 23.64C251.203 23.1333 250.963 22.76 250.483 22.52C250.029 22.2533 249.416 22.0533 248.643 21.92C247.869 21.7867 247.016 21.6533 246.083 21.52C245.176 21.3867 244.256 21.2133 243.323 21C242.389 20.76 241.536 20.4133 240.763 19.96C239.989 19.5067 239.363 18.8933 238.883 18.12C238.429 17.3467 238.203 16.3467 238.203 15.12C238.203 13.76 238.589 12.56 239.363 11.52C240.163 10.48 241.309 9.66667 242.803 9.08C244.296 8.46667 246.083 8.16 248.163 8.16C249.629 8.16 251.123 8.32 252.643 8.64C254.163 8.96 255.429 9.42667 256.443 10.04L254.363 14.48C253.323 13.8667 252.269 13.4533 251.203 13.24C250.163 13 249.149 12.88 248.163 12.88C246.776 12.88 245.763 13.0667 245.123 13.44C244.483 13.8133 244.163 14.2933 244.163 14.88C244.163 15.4133 244.389 15.8133 244.843 16.08C245.323 16.3467 245.949 16.56 246.723 16.72C247.496 16.88 248.336 17.0267 249.243 17.16C250.176 17.2667 251.109 17.44 252.043 17.68C252.976 17.92 253.816 18.2667 254.563 18.72C255.336 19.1467 255.963 19.7467 256.443 20.52C256.923 21.2667 257.163 22.2533 257.163 23.48C257.163 24.8133 256.763 26 255.963 27.04C255.163 28.0533 254.003 28.8533 252.483 29.44C250.989 30.0267 249.163 30.32 247.003 30.32Z" fill="#FF5B50"/>
</svg>
